# xmcd
#
# Track frame offsets:
#	150
#	38314
#	63418
#	109254
#	158848
#
# Disc length: 3263 seconds
#
# Revision: 1
# Processed by: cddbd v1.5.2PL0 Copyright (c) Steve Scherf et al.
# Submitted via: dBpowerAMP V4.0
#
DISCID=340cbd05
DTITLE=Najet Essaghira - Ya Msafer Wahdek
DYEAR=2002
DGENRE=Bass
TTITLE0=ma banastaghnech aan ba3dhina
TTITLE1=ashar wa anchaghel ana
TTITLE2=ma7laha aichet al falleh
TTITLE3=Ya msafer wahdek
TTITLE4=ma kanech albel
EXTD=hattabking
EXTT0=
EXTT1=
EXTT2=
EXTT3=
EXTT4=
PLAYORDER=
